# xmcd
#
# Track frame offsets: 
#        225
#        40233
#        91985
#        108802
#        195850
#
# Disc length: 2833 seconds
#
# Revision: 0
# Processed by: cddbd v1.4PL0 Copyright (c) Steve Scherf et al.
# Submitted via: ExactAudioCopy v0.90b3
#
DISCID=300b0e05
DTITLE=Alan Licht and Loren Mazzacane Connors - Mercury
DYEAR=1997
DGENRE=Blues
TTITLE0=Alterknit
TTITLE1=Pittsburgh
TTITLE2=Chicago
TTITLE3=Toronto (1)
TTITLE4=Toronto (2)
EXTD=
EXTT0=
EXTT1=
EXTT2=
EXTT3=
EXTT4=
PLAYORDER=
